# xmcd
# 
# Track frame offsets:
#     150
#     21165
#     38950
#     59672
#     77650
#     96212
#     113087
#     127467
#     140877
#     154575
#     169585
# 
# Disc length: 2517
# 
# Revision: 2
# Processed by: cddbd v1.5.2PL0 Copyright (c) Steve Scherf et al.
# Submitted via: fre:ac v1.0.31
# 
DISCID=9a09d30b
DTITLE=Dolly Parton - Treasures
DYEAR=1996
DGENRE=Folk/Country
TTITLE0=Peace Train
TTITLE1=Today I Started Loving You Again
TTITLE2=Just When I Needed You Most
TTITLE3=Something's Burning
TTITLE4=Before the Next Teardrop Falls
TTITLE5=After the Goldrush
TTITLE6=Walking on Sunshine
TTITLE7=Behine Closed Doors
TTITLE8=Don't Let Me Cross Over
TTITLE9=Satin Sheets
TTITLE10=For the Good Times
EXTD=
EXTT0=
EXTT1=
EXTT2=
EXTT3=
EXTT4=
EXTT5=
EXTT6=
EXTT7=
EXTT8=
EXTT9=
EXTT10=
PLAYORDER=
